<?xml version="1.0" standalone="no"?>
<!DOCTYPE svg PUBLIC "-//W3C//DTD SVG 20010904//EN"
 "http://www.w3.org/TR/2001/REC-SVG-20010904/DTD/svg10.dtd">
<svg version="1.0" xmlns="http://www.w3.org/2000/svg"
 width="548.000000pt" height="548.000000pt" viewBox="0 0 548.000000 548.000000"
 preserveAspectRatio="xMidYMid meet">
<metadata>
Created by potrace 1.14, written by Peter Selinger 2001-2017
</metadata>
<g transform="translate(0.000000,548.000000) scale(0.100000,-0.100000)"
fill="#000000" stroke="none">
<path d="M3039 4906 c-105 -71 -74 -245 46 -258 25 -2 31 1 33 19 3 17 -5 26
-34 38 -46 19 -63 41 -64 80 0 29 32 94 47 96 5 0 16 2 26 4 31 6 34 -42 3
-74 -51 -53 -17 -87 38 -36 49 45 55 111 13 140 -31 22 -67 18 -108 -9z"/>
<path d="M2305 4808 c-11 -7 -40 -13 -65 -14 -47 -2 -65 -23 -41 -47 6 -6 11
-36 11 -67 0 -31 3 -59 6 -63 4 -3 23 2 43 12 23 12 51 17 80 15 l43 -3 -7 32
c-4 18 -8 58 -9 90 -1 50 -3 57 -21 57 -11 0 -29 -6 -40 -12z"/>
<path d="M1391 4579 c-18 -6 -50 -21 -71 -34 -32 -20 -43 -23 -72 -15 -83 24
-171 0 -224 -62 -19 -23 -48 -42 -84 -54 -209 -72 -230 -348 -33 -430 40 -17
110 -23 145 -13 21 6 41 0 91 -27 35 -18 88 -40 118 -48 77 -20 209 -13 289
14 36 12 95 24 132 25 151 7 253 101 259 240 3 88 -21 148 -83 207 -37 35
-110 68 -150 68 -10 0 -18 4 -18 8 0 18 -85 92 -127 112 -46 21 -114 25 -172
9z"/>
<path d="M4002 4504 c-35 -24 -26 -71 15 -78 25 -5 56 25 51 50 -1 9 -12 23
-23 30 -18 12 -24 11 -43 -2z"/>
<path d="M2188 4387 c-26 -18 -48 -37 -48 -43 0 -6 11 -20 24 -33 12 -12 36
-47 52 -77 16 -30 46 -74 68 -97 42 -45 91 -115 85 -121 -2 -2 -53 -6 -114 -9
-203 -10 -304 -54 -334 -145 -13 -39 -15 -40 -45 -31 -110 33 -268 -12 -360
-103 -26 -26 -55 -48 -63 -48 -8 0 -40 -7 -71 -16 -320 -89 -590 -299 -778
-603 -21 -35 -47 -72 -56 -82 -10 -11 -18 -27 -18 -36 0 -10 -5 -25 -10 -33
-8 -12 -17 -8 -52 27 -66 64 -198 127 -198 94 0 -5 34 -53 76 -106 60 -76 74
-99 63 -106 -8 -5 -17 -9 -20 -9 -14 0 -29 -55 -23 -84 6 -32 5 -33 -48 -44
-29 -6 -84 -14 -123 -17 -38 -3 -73 -9 -78 -14 -24 -24 132 -91 214 -93 27 0
52 -5 55 -10 3 -5 1 -30 -5 -56 -48 -209 -47 -496 3 -717 2 -11 9 -40 15 -65
34 -151 126 -357 220 -495 209 -306 508 -491 861 -531 66 -7 349 -8 385 0 11
2 48 7 81 11 59 6 74 3 300 -70 386 -124 542 -174 665 -215 125 -40 144 -40
194 6 11 11 54 46 95 79 41 33 77 62 80 65 3 3 66 55 140 115 188 152 184 147
208 251 49 215 49 214 23 235 -13 11 -56 29 -96 40 -68 20 -73 23 -65 43 9 22
35 129 44 179 6 36 -11 46 -154 91 -113 35 -116 36 -129 73 -15 42 -92 128
-133 149 -23 12 -26 18 -21 48 4 25 -1 47 -15 74 -17 33 -19 47 -11 87 5 27
10 49 12 49 1 1 55 19 121 40 65 22 145 52 176 67 l58 27 29 -34 c89 -109 315
-140 519 -70 192 65 377 196 491 347 100 132 137 239 137 394 0 98 -3 116 -26
168 -34 72 -104 142 -177 174 -75 34 -198 37 -283 6 -32 -12 -60 -18 -63 -14
-6 11 18 42 35 45 66 11 150 92 169 162 12 44 6 109 -12 137 -41 62 -169 154
-282 202 -45 20 -66 36 -84 65 -13 21 -41 48 -62 60 -40 22 -48 43 -26 71 41
53 137 42 192 -22 l20 -24 -21 18 c-41 34 -77 10 -48 -32 17 -23 64 -51 89
-51 8 0 20 11 25 25 18 48 -21 103 -103 146 -36 19 -73 24 -139 20 -32 -1 -85
-49 -94 -85 -4 -17 -13 -26 -25 -26 -11 0 -35 -7 -54 -15 -31 -12 -40 -12 -78
1 -120 43 -595 151 -742 169 -27 4 -61 8 -75 11 -25 4 -87 12 -148 18 -43 4
-86 45 -122 116 -16 30 -49 77 -75 104 -25 27 -59 75 -77 108 -28 53 -69 99
-87 97 -3 0 -27 -15 -53 -32z m1532 -637 c0 -5 -2 -10 -4 -10 -3 0 -8 5 -11
10 -3 6 -1 10 4 10 6 0 11 -4 11 -10z m111 -37 c13 -16 12 -17 -3 -4 -10 7
-18 15 -18 17 0 8 8 3 21 -13z m498 -781 c68 -41 96 -104 95 -207 -3 -227
-181 -443 -436 -532 -104 -36 -242 -38 -310 -5 -27 13 -48 29 -48 35 0 7 15
22 33 33 193 125 340 347 372 565 19 129 171 186 294 111z"/>
<path d="M3205 4260 c-17 -11 -47 -21 -68 -23 -21 -2 -40 -6 -42 -9 -3 -2 4
-23 15 -46 11 -22 20 -54 20 -71 0 -40 12 -45 52 -22 18 11 50 21 71 24 21 3
40 7 42 9 2 2 -3 17 -11 33 -9 17 -19 50 -22 74 -8 52 -16 56 -57 31z"/>
<path d="M4480 4185 c-18 -10 -39 -47 -77 -138 -70 -165 -73 -179 -38 -211 36
-33 84 -35 112 -3 25 28 123 260 123 292 0 27 -22 53 -57 66 -30 11 -33 11
-63 -6z"/>
<path d="M4898 3870 c-119 -49 -218 -100 -232 -122 -27 -41 -5 -100 43 -116
26 -9 46 -3 167 51 148 66 173 88 160 140 -8 34 -44 67 -70 66 -12 0 -42 -9
-68 -19z"/>
<path d="M4608 3400 c-9 -6 -22 -26 -28 -46 -20 -60 -5 -78 115 -129 19 -8 52
-23 73 -32 81 -36 115 -42 145 -24 28 16 47 61 39 93 -7 30 -36 47 -161 98
-125 51 -153 57 -183 40z"/>
<path d="M5084 2779 c-17 -5 -37 -16 -44 -24 -7 -8 -23 -15 -37 -15 -76 0
-146 -75 -145 -155 2 -71 39 -125 86 -125 22 0 55 39 51 61 -4 22 8 25 24 5
16 -19 58 -26 75 -12 38 29 35 140 -5 182 l-20 22 25 6 c29 7 66 -5 85 -28 15
-18 47 -21 57 -5 10 16 -14 53 -44 71 -38 22 -72 27 -108 17z m-98 -146 c-1
-33 -6 -50 -16 -54 -8 -3 -17 -19 -20 -35 -7 -38 -30 -37 -46 1 -21 52 19 134
67 135 12 0 15 -11 15 -47z m86 -34 c-1 -44 -16 -56 -36 -28 -17 25 -20 56
-10 84 11 28 47 -16 46 -56z"/>
<path d="M4594 2075 c-19 -29 -11 -61 19 -71 29 -10 48 -6 64 14 18 24 16 46
-5 65 -27 24 -59 21 -78 -8z"/>
<path d="M4235 1944 c-22 -8 -58 -30 -80 -50 -38 -33 -43 -34 -90 -28 -66 9
-90 7 -125 -11 -33 -17 -74 -68 -85 -105 -11 -38 -22 -47 -76 -65 -90 -30
-137 -86 -143 -172 -6 -78 33 -144 106 -178 51 -23 110 -25 165 -4 38 14 65
11 88 -11 32 -30 110 -68 154 -75 22 -3 75 -8 118 -10 46 -2 102 -12 138 -25
79 -29 174 -30 235 -3 133 59 196 207 147 343 -32 89 -105 151 -229 193 -10 4
-30 31 -44 61 -60 126 -166 179 -279 140z"/>
<path d="M3965 1063 c-3 -16 -12 -48 -21 -73 -29 -86 -30 -80 11 -80 21 0 52
-9 71 -20 37 -23 44 -18 51 37 3 19 13 54 24 77 l18 41 -37 6 c-20 3 -51 13
-69 22 -41 22 -42 22 -48 -10z"/>
</g>
</svg>
